<?xml version="1.0" encoding="UTF-8"?>
<svg id="_レイヤー_2" data-name="レイヤー 2" xmlns="http://www.w3.org/2000/svg" viewBox="0 0 6586.7 394.25">
  <defs>
    <style>
      .cls-1 {
        fill: #968d5c;
      }
    </style>
  </defs>
  <g id="_レイヤー_4" data-name="レイヤー 4">
    <g>
      <path class="cls-1" d="M159.45,394.25H0V0h159.45c35.02,0,64.52,10.96,85.33,31.7,23.64,23.56,35.62,58.59,35.62,104.1v122.65c0,45.51-11.99,80.54-35.62,104.1-20.81,20.74-50.31,31.7-85.33,31.7ZM1,393.25h158.45c34.75,0,64.01-10.86,84.62-31.41,23.44-23.37,35.33-58.15,35.33-103.39v-122.65c0-45.24-11.89-80.02-35.33-103.39C223.46,11.86,194.2,1,159.45,1H1v392.25ZM128.65,311.2h-32.95V83.05h32.95c19.68,0,34.64,7.71,44.49,22.92,10.06,15.54,11.56,33.98,11.56,43.58v95.15c0,9.61-1.5,28.04-11.56,43.58-9.84,15.21-24.81,22.92-44.49,22.92ZM96.7,310.2h31.95c19.32,0,34-7.56,43.65-22.46,9.92-15.32,11.4-33.54,11.4-43.04v-95.15c0-9.5-1.48-27.72-11.4-43.04-9.65-14.9-24.33-22.46-43.65-22.46h-31.95v226.15Z"/>
      <path class="cls-1" d="M617.91,394.25h-110.61l-.14-.27-76.31-144.93h-8v145.2h-96.7V0h201.8c56.33,0,68.15,35.86,68.15,65.95v117.7c0,40.07-20.61,62.66-59.63,65.35l81.43,145.25ZM507.9,393.25h108.3l-81.37-145.15.79-.05c20.8-1.28,36.38-8.12,46.32-20.3,8.73-10.71,13.16-25.54,13.16-44.1v-117.7c0-53.68-36.52-64.95-67.15-64.95h-200.8v392.25h94.7v-145.2h9.6l.14.27,76.31,144.93ZM482.3,166h-60.45v-82.95h60.45c9.81,0,18.1,8.54,18.1,18.65v45.65c0,10.11-8.29,18.65-18.1,18.65ZM422.85,165h59.45c9.27,0,17.1-8.08,17.1-17.65v-45.65c0-9.57-7.83-17.65-17.1-17.65h-59.45v80.95Z"/>
      <path class="cls-1" d="M935.07,394.25h-100.05l-17.6-64.9h-95.48l-17.05,64.9h-93.45L726.13,0h92.6l.11.36,116.24,393.89ZM835.78,393.25h97.95L817.98,1h-91.1l-114.11,392.25h91.35l17.05-64.9h97.02l17.6,64.9ZM796.99,247.4h-54.08l16.65-67.17,9.99-43.28h1.35l9.43,43.29,16.65,67.16ZM744.19,246.4h51.52l-16.35-65.94-9.14-41.95-9.68,41.95-16.35,65.94Z"/>
      <path class="cls-1" d="M1175.3,394.25h-152.35c-31.34,0-68.7-11.44-68.7-65.95V65.95c0-54.51,37.36-65.95,68.7-65.95h152.35c56.33,0,68.15,35.86,68.15,65.95v38.92l-.41.08-94.09,17.71v-38.6h-97.45v226.15h97.45v-65h-51.15v-84.05h145.65v167.15c0,30.09-11.82,65.95-68.15,65.95ZM1022.95,1c-30.88,0-67.7,11.27-67.7,64.95v262.35c0,53.68,36.82,64.95,67.7,64.95h152.35c30.63,0,67.15-11.27,67.15-64.95v-166.15h-143.65v82.05h51.15v67h-99.45V83.05h99.45v38.4l92.5-17.41v-38.08c0-53.68-36.52-64.95-67.15-64.95h-152.35Z"/>
      <path class="cls-1" d="M1515.75,394.25h-156.75c-31.34,0-68.7-11.44-68.7-65.95V65.95c0-54.51,37.36-65.95,68.7-65.95h156.75c56.33,0,68.15,35.86,68.15,65.95v262.35c0,30.09-11.82,65.95-68.15,65.95ZM1359,1c-30.88,0-67.7,11.27-67.7,64.95v262.35c0,53.68,36.82,64.95,67.7,64.95h156.75c30.63,0,67.15-11.27,67.15-64.95V65.95c0-53.68-36.52-64.95-67.15-64.95h-156.75ZM1488.2,311.2h-101.65V83.05h101.65v228.15ZM1387.55,310.2h99.65V84.05h-99.65v226.15Z"/>
      <path class="cls-1" d="M1921.05,394.25h-79.45l-109.75-205.78v205.78h-93.95V0h86.05l.14.26,103.01,192.32V0h93.95v394.25ZM1842.2,393.25h77.85V1h-91.95v193.05h-1.35l-.14-.26L1723.35,1h-84.45v392.25h91.95v-206.25h1.35l110,206.25Z"/>
      <path class="cls-1" d="M2166.4,394.25h-189.7V0h186.95c28.03,0,49.15,7.48,62.79,22.23,11.95,12.92,18.01,31.15,18.01,54.17v50.6c0,26.26-15.32,58.17-48.95,66.39v.29c17.35,3.14,30.64,10.79,39.5,22.74,7.62,10.27,11.65,23.47,11.65,38.18v63.25c0,34.85-13.92,76.4-80.25,76.4ZM1977.7,393.25h188.7c36.15,0,79.25-13.08,79.25-75.4v-63.25c0-15.35-4.94-51.93-50.74-60.01l-.41-.07v-1.91l.38-.09c23.39-5.57,48.57-28.45,48.57-65.51v-50.6c0-34.4-13.84-75.4-79.8-75.4h-185.95v392.25ZM2124.05,312.85h-51.65v-78.55h45.05c18.68,0,30.75,12.93,30.75,32.95v20.9c0,13.16-11.29,24.7-24.15,24.7ZM2073.4,311.85h50.65c12.33,0,23.15-11.08,23.15-23.7v-20.9c0-19.41-11.68-31.95-29.75-31.95h-44.05v76.55ZM2117.45,153.35h-45.05v-71.95h51.65c12.87,0,24.15,11.54,24.15,24.7v14.3c0,20.02-12.07,32.95-30.75,32.95ZM2073.4,152.35h44.05c18.07,0,29.75-12.54,29.75-31.95v-14.3c0-12.62-10.82-23.7-23.15-23.7h-50.65v69.95Z"/>
      <path class="cls-1" d="M2584.52,394.25h-100.05l-17.6-64.9h-95.48l-17.05,64.9h-93.45L2375.58,0h92.6l.11.36,116.24,393.89ZM2485.23,393.25h97.95L2467.43,1h-91.1l-114.11,392.25h91.35l17.05-64.9h97.02l17.6,64.9ZM2446.44,247.4h-54.08l16.65-67.17,9.99-43.28h1.35l9.43,43.29,16.65,67.16ZM2393.64,246.4h51.52l-16.35-65.94-9.14-41.95-9.68,41.95-16.35,65.94Z"/>
      <path class="cls-1" d="M2826.35,394.25h-220.45V0h96.7v310.2h123.75v84.05ZM2606.9,393.25h218.45v-82.05h-123.75V1h-94.7v392.25Z"/>
      <path class="cls-1" d="M3075.5,394.25h-220.45V0h96.7v310.2h123.75v84.05ZM2856.05,393.25h218.45v-82.05h-123.75V1h-94.7v392.25Z"/>
      <path class="cls-1" d="M3392.9,394.25h-139.15c-56.33,0-68.15-35.86-68.15-65.95v-40.01l95.05-18.34v22.61c0,9.73,7.42,17.65,16.55,17.65h49.5c9.43,0,17.1-7.92,17.1-17.65v-28.6c0-18.17-5.1-23.16-24.83-24.25l-75.9-3.85c-45.84-2.55-68.12-24.3-68.12-66.5v-103.4c0-30.09,11.82-65.95,68.15-65.95h127.05c56.33,0,68.15,35.86,68.15,65.95v36.71l-.4.08-94.1,18.27v-19.31c0-9.57-7.83-17.65-17.1-17.65h-37.95c-9.43,0-17.1,7.92-17.1,17.65v20.9c0,20.41,7.83,24.32,25.38,25.35l75.9,3.85c23.99,1.32,41.89,8.12,53.21,20.23,10.26,10.98,15.47,26.73,15.47,46.82v109.45c0,54.51-37.36,65.95-68.7,65.95ZM3186.6,289.11v39.19c0,53.68,36.52,64.95,67.15,64.95h139.15c30.88,0,67.7-11.27,67.7-64.95v-109.45c0-41.94-22.15-63.55-67.73-66.05l-75.9-3.85c-17.84-1.05-26.32-5.26-26.32-26.35v-20.9c0-10.28,8.12-18.65,18.1-18.65h37.95c9.81,0,18.1,8.54,18.1,18.65v18.09l92.5-17.96v-35.89c0-53.68-36.52-64.95-67.15-64.95h-127.05c-30.63,0-67.15,11.27-67.15,64.95v103.4c0,41.56,21.97,62.99,67.18,65.5l75.9,3.85c20.23,1.12,25.77,6.55,25.77,25.25v28.6c0,10.28-8.12,18.65-18.1,18.65h-49.5c-9.68,0-17.55-8.37-17.55-18.65v-21.39l-93.05,17.96Z"/>
      <path class="cls-1" d="M3716.3,394.25h-140.8c-24.04,0-42-6.49-53.38-19.28-9.8-11.02-14.77-26.72-14.77-46.67V0h96.7v308.55h83.15V0h97.25v328.3c0,19.95-4.97,35.65-14.77,46.67-11.38,12.79-29.34,19.28-53.38,19.28ZM3508.35,1v327.3c0,19.7,4.88,35.18,14.52,46,11.18,12.57,28.89,18.95,52.63,18.95h140.8c23.74,0,41.45-6.37,52.63-18.95,9.63-10.83,14.52-26.31,14.52-46V1h-95.25v308.55h-85.15V1h-94.7Z"/>
      <path class="cls-1" d="M3935.15,394.25h-96.7V0h197.4c31.34,0,68.7,11.44,68.7,65.95v120.45c0,19.84-5.06,35.45-15.05,46.4-11.5,12.61-29.55,19-53.65,19h-100.7v142.45ZM3839.45,393.25h94.7v-142.45h101.7c23.81,0,41.61-6.28,52.91-18.67,9.81-10.76,14.79-26.15,14.79-45.73v-120.45c0-53.68-36.82-64.95-67.7-64.95h-196.4v392.25ZM3990.75,168.75h-56.6v-85.7h56.6c9.68,0,17.55,8.37,17.55,18.65v48.4c0,10.28-7.87,18.65-17.55,18.65ZM3935.15,167.75h55.6c9.13,0,16.55-7.92,16.55-17.65v-48.4c0-9.73-7.42-17.65-16.55-17.65h-55.6v83.7Z"/>
      <path class="cls-1" d="M4374.6,394.25h-231.45V0h223.75v84.05h-127.05v68.3h89.1v85.7h-89.1v72.15h134.75v84.05ZM4144.15,393.25h229.45v-82.05h-134.75v-74.15h89.1v-83.7h-89.1v-70.3h127.05V1h-221.75v392.25Z"/>
      <path class="cls-1" d="M4701.65,394.25h-110.61l-.14-.27-76.31-144.93h-8v145.2h-96.7V0h201.8c56.33,0,68.15,35.86,68.15,65.95v117.7c0,40.07-20.61,62.66-59.63,65.35l81.43,145.25ZM4591.65,393.25h108.29l-81.37-145.15.79-.05c20.8-1.28,36.38-8.12,46.32-20.3,8.73-10.71,13.16-25.54,13.16-44.1v-117.7c0-53.68-36.52-64.95-67.15-64.95h-200.8v392.25h94.7v-145.2h9.6l.14.27,76.31,144.93ZM4566.05,166h-60.45v-82.95h60.45c9.81,0,18.1,8.54,18.1,18.65v45.65c0,10.11-8.29,18.65-18.1,18.65ZM4506.6,165h59.45c9.27,0,17.1-8.08,17.1-17.65v-45.65c0-9.57-7.83-17.65-17.1-17.65h-59.45v80.95Z"/>
      <path class="cls-1" d="M5014.3,394.25h-189.7V0h186.95c28.03,0,49.15,7.48,62.79,22.23,11.95,12.92,18.01,31.15,18.01,54.17v50.6c0,26.26-15.32,58.17-48.95,66.39v.29c17.35,3.14,30.64,10.79,39.5,22.74,7.62,10.27,11.65,23.47,11.65,38.18v63.25c0,34.85-13.92,76.4-80.25,76.4ZM4825.6,393.25h188.7c36.15,0,79.25-13.08,79.25-75.4v-63.25c0-15.35-4.94-51.93-50.74-60.01l-.41-.07v-1.91l.38-.09c23.39-5.57,48.57-28.45,48.57-65.51v-50.6c0-34.4-13.84-75.4-79.8-75.4h-185.95v392.25ZM4971.95,312.85h-51.65v-78.55h45.05c18.68,0,30.75,12.93,30.75,32.95v20.9c0,13.16-11.29,24.7-24.15,24.7ZM4921.3,311.85h50.65c12.33,0,23.15-11.08,23.15-23.7v-20.9c0-19.41-11.68-31.95-29.75-31.95h-44.05v76.55ZM4965.35,153.35h-45.05v-71.95h51.65c12.87,0,24.15,11.54,24.15,24.7v14.3c0,20.02-12.07,32.95-30.75,32.95ZM4921.3,152.35h44.05c18.07,0,29.75-12.54,29.75-31.95v-14.3c0-12.62-10.82-23.7-23.15-23.7h-50.65v69.95Z"/>
      <path class="cls-1" d="M5373.95,394.25h-231.45V0h223.75v84.05h-127.05v68.3h89.1v85.7h-89.1v72.15h134.75v84.05ZM5143.5,393.25h229.45v-82.05h-134.75v-74.15h89.1v-83.7h-89.1v-70.3h127.05V1h-221.75v392.25Z"/>
      <path class="cls-1" d="M5640.7,394.25h-231.45V0h223.75v84.05h-127.05v68.3h89.1v85.7h-89.1v72.15h134.75v84.05ZM5410.25,393.25h229.45v-82.05h-134.75v-74.15h89.1v-83.7h-89.1v-70.3h127.05V1h-221.75v392.25Z"/>
      <path class="cls-1" d="M5967.76,394.25h-110.61l-.14-.27-76.31-144.93h-8v145.2h-96.7V0h201.8c56.33,0,68.15,35.86,68.15,65.95v117.7c0,40.07-20.61,62.66-59.63,65.35l81.43,145.25ZM5857.75,393.25h108.29l-81.37-145.15.79-.05c20.8-1.28,36.38-8.12,46.32-20.3,8.73-10.71,13.16-25.54,13.16-44.1v-117.7c0-53.68-36.52-64.95-67.15-64.95h-200.8v392.25h94.7v-145.2h9.6l.14.27,76.31,144.93ZM5832.15,166h-60.45v-82.95h60.45c9.81,0,18.1,8.54,18.1,18.65v45.65c0,10.11-8.29,18.65-18.1,18.65ZM5772.7,165h59.45c9.27,0,17.1-8.08,17.1-17.65v-45.65c0-9.57-7.83-17.65-17.1-17.65h-59.45v80.95Z"/>
      <path class="cls-1" d="M6202.85,394.25h-140.8c-24.04,0-42-6.49-53.38-19.28-9.8-11.02-14.77-26.72-14.77-46.67V0h96.7v308.55h83.15V0h97.25v328.3c0,19.95-4.97,35.65-14.77,46.67-11.38,12.79-29.34,19.28-53.38,19.28ZM5994.9,1v327.3c0,19.7,4.88,35.18,14.52,46,11.18,12.57,28.89,18.95,52.63,18.95h140.8c23.74,0,41.45-6.37,52.63-18.95,9.63-10.83,14.52-26.31,14.52-46V1h-95.25v308.55h-85.15V1h-94.7Z"/>
      <path class="cls-1" d="M6518,394.25h-139.15c-56.33,0-68.15-35.86-68.15-65.95v-40.01l95.05-18.34v22.61c0,9.57,7.58,17.65,16.55,17.65h49.5c9.43,0,17.1-7.92,17.1-17.65v-28.6c0-18.17-5.1-23.16-24.83-24.25l-75.9-3.85c-45.84-2.55-68.12-24.3-68.12-66.5v-103.4c0-30.09,11.82-65.95,68.15-65.95h127.05c56.33,0,68.15,35.86,68.15,65.95v36.71l-.4.08-94.1,18.27v-19.31c0-9.57-7.83-17.65-17.1-17.65h-37.95c-9.43,0-17.1,7.92-17.1,17.65v20.9c0,20.41,7.83,24.32,25.38,25.35l75.9,3.85c23.99,1.32,41.89,8.12,53.21,20.23,10.26,10.98,15.47,26.73,15.47,46.82v109.45c0,54.51-37.36,65.95-68.7,65.95ZM6311.7,289.11v39.19c0,53.68,36.52,64.95,67.15,64.95h139.15c30.88,0,67.7-11.27,67.7-64.95v-109.45c0-41.94-22.15-63.55-67.73-66.05l-75.9-3.85c-17.84-1.05-26.33-5.26-26.33-26.35v-20.9c0-10.28,8.12-18.65,18.1-18.65h37.95c9.81,0,18.1,8.54,18.1,18.65v18.09l92.5-17.96v-35.89c0-53.68-36.52-64.95-67.15-64.95h-127.05c-30.63,0-67.15,11.27-67.15,64.95v103.4c0,41.56,21.97,62.99,67.18,65.5l75.9,3.85c20.23,1.12,25.77,6.55,25.77,25.25v28.6c0,10.28-8.12,18.65-18.1,18.65h-49.5c-9.68,0-17.55-8.37-17.55-18.65v-21.39l-93.05,17.96Z"/>
    </g>
  </g>
</svg>